<svg width="539" height="73" viewBox="0 0 539 73" fill="none" xmlns="http://www.w3.org/2000/svg">
<path d="M15.2695 64.181C14.9165 64.7932 14.74 65.0994 14.437 65.1548C14.1342 65.2102 13.8679 64.992 13.3353 64.5554C5.19519 57.8829 1.48702e-06 47.7415 0 36.385C-2.6312e-06 16.2901 16.2658 2.63513e-06 36.3307 0C56.3957 -2.63512e-06 72.6615 16.2901 72.6615 36.3849C72.6615 47.7415 67.4663 57.8829 59.3262 64.5554C58.7936 64.9919 58.5274 65.2102 58.2245 65.1548C57.9215 65.0994 57.745 64.7932 57.392 64.1809L51.5722 54.0858C51.3144 53.6385 51.1854 53.4148 51.2171 53.1878C51.2487 52.9608 51.4419 52.7732 51.8283 52.398C56.0033 48.3447 58.598 42.6682 58.598 36.3849C58.598 24.0687 48.6286 14.0845 36.3307 14.0845C24.0329 14.0845 14.0635 24.0687 14.0635 36.385C14.0635 42.6682 16.6582 48.3447 20.8332 52.398C21.2196 52.7732 21.4128 52.9608 21.4444 53.1878C21.476 53.4148 21.3472 53.6385 21.0893 54.0858L15.2695 64.181Z" fill="#01CA7C"/>
<path d="M36.369 72.9457C33.6291 72.9456 30.9629 72.0573 28.7689 70.4138C26.575 68.7702 24.9711 66.4596 24.1972 63.8273C22.8616 59.2851 26.2617 54.7303 30.9903 54.7303H41.7476C46.4763 54.7303 49.8764 59.2833 48.5408 63.8256C47.7672 66.4581 46.1635 68.7691 43.9694 70.413C41.7754 72.0569 39.1091 72.9454 36.369 72.9457Z" fill="#28407D"/>
<path d="M44.6649 41.3922C44.6649 36.8084 40.9544 33.0924 36.3773 33.0924C31.8003 33.0924 28.0898 36.8084 28.0898 41.3922C28.0898 45.9762 31.8003 49.6922 36.3773 49.6922C40.9544 49.6922 44.6649 45.9762 44.6649 41.3922Z" fill="#28407D"/>
<path d="M305.042 44.834H290.282L290.364 64.35H282V9H306.026C316.44 9 321.934 16.954 321.934 26.712C321.934 33.436 319.228 39.832 313.57 42.948L324.066 64.35H314.636L305.042 44.834ZM313.406 26.712C313.406 20.726 310.454 16.954 306.026 16.954H290.364V36.224H299.138C299.712 36.224 300.368 36.306 300.942 36.306C308.404 36.306 313.406 35.814 313.406 26.712Z" fill="#01CA7C"/>
<path d="M370.854 48.606H339.858C341.498 54.018 345.27 56.97 351.502 56.97C356.504 56.97 359.784 55.248 363.638 50.738L369.788 54.346C366.016 60.824 359.292 64.76 351.912 64.76C340.104 64.76 331.248 56.314 331.248 44.588C331.248 33.19 340.022 24.416 351.42 24.416C362.982 24.416 371.018 33.19 371.018 45.818L370.854 48.606ZM351.502 32.37C346.09 32.37 342.072 35.158 340.104 40.652H362.162C360.686 34.912 356.914 32.37 351.502 32.37Z" fill="#01CA7C"/>
<path d="M397.323 24.416C405.359 24.416 411.591 29.09 412.903 36.798C413.313 39.258 413.313 43.112 413.313 44.014V64.35H405.441V47.212C405.523 46.392 405.523 45.654 405.523 44.916C405.523 37.7 404.129 32.124 397.569 32.124C388.385 32.124 387.401 38.028 387.401 43.03C387.401 43.85 387.401 44.506 387.483 45.244V64.35H379.775L379.939 24.416H387.729L387.647 26.876C390.189 25.072 393.387 24.416 397.323 24.416Z" fill="#01CA7C"/>
<path d="M441.039 24.416C445.057 24.416 449.895 25.728 453.339 28.516V11.378H460.965V64.35H453.339V60.168C448.911 63.776 444.073 64.76 440.055 64.76C429.395 64.76 420.375 55.494 420.375 44.424C420.375 33.19 429.395 24.416 441.039 24.416ZM440.875 56.97C447.681 56.97 453.175 51.476 453.175 44.588C453.175 37.946 447.681 32.206 440.875 32.206C434.233 32.206 428.493 37.864 428.493 44.588C428.493 51.312 433.987 56.97 440.875 56.97Z" fill="#01CA7C"/>
<path d="M509.229 48.606H478.233C479.873 54.018 483.645 56.97 489.877 56.97C494.879 56.97 498.159 55.248 502.013 50.738L508.163 54.346C504.391 60.824 497.667 64.76 490.287 64.76C478.479 64.76 469.623 56.314 469.623 44.588C469.623 33.19 478.397 24.416 489.795 24.416C501.357 24.416 509.393 33.19 509.393 45.818L509.229 48.606ZM489.877 32.37C484.465 32.37 480.447 35.158 478.479 40.652H500.537C499.061 34.912 495.289 32.37 489.877 32.37Z" fill="#01CA7C"/>
<path d="M524.976 27.04C528.748 24.662 533.504 24.416 538.342 24.416V32.944C536.456 32.534 535.144 32.288 534.406 32.288C530.142 32.288 525.304 34.01 525.304 38.356C525.304 39.258 525.304 40.488 525.222 41.964V64.35H517.35V25.318H524.976V27.04Z" fill="#01CA7C"/>
<path d="M126.126 56.043C132.358 56.043 138.344 52.763 145.232 45.793C147.61 46.859 149.578 47.925 151.874 49.237C147.2 58.339 137.36 64.161 126.7 64.161C110.382 64.161 98 52.189 98 36.691C98 20.947 110.792 8.811 127.684 8.811C137.278 8.811 144.74 13.075 152.038 23.079C151.218 23.653 148.922 25.129 148.102 25.621C147.528 26.031 145.806 27.097 145.15 27.507C138.508 19.635 133.998 17.093 127.684 17.093C115.466 17.093 106.61 25.375 106.61 36.281C106.61 47.351 115.384 56.043 126.126 56.043Z" fill="#203468"/>
<path d="M191.101 25.129H198.973L199.137 64.161H191.101V60.471C185.935 64.489 180.851 64.571 176.997 64.571C167.075 64.571 158.219 54.895 158.219 44.317C158.219 33.575 166.993 24.227 177.243 24.227C181.425 24.227 185.771 24.555 191.101 28.655V25.129ZM178.719 56.781C185.689 56.781 191.101 51.205 191.101 44.399C191.101 37.429 185.525 31.935 178.719 31.935C171.831 31.935 166.337 37.511 166.337 44.727C166.337 51.451 171.749 56.781 178.719 56.781Z" fill="#203468"/>
<path d="M215.493 26.851C219.265 24.473 224.021 24.227 228.859 24.227V32.755C226.973 32.345 225.661 32.099 224.923 32.099C220.659 32.099 215.821 33.821 215.821 38.167C215.821 39.069 215.821 40.299 215.739 41.775V64.161H207.867V25.129H215.493V26.851Z" fill="#203468"/>
<path d="M252.475 24.227C256.493 24.227 261.331 25.539 264.775 28.327V11.189H272.401V64.161H264.775V59.979C260.347 63.587 255.509 64.571 251.491 64.571C240.831 64.571 231.811 55.305 231.811 44.235C231.811 33.001 240.831 24.227 252.475 24.227ZM252.311 56.781C259.117 56.781 264.611 51.287 264.611 44.399C264.611 37.757 259.117 32.017 252.311 32.017C245.669 32.017 239.929 37.675 239.929 44.399C239.929 51.123 245.423 56.781 252.311 56.781Z" fill="#203468"/>
</svg>
