<svg width="545" height="73" viewBox="0 0 545 73" fill="none" xmlns="http://www.w3.org/2000/svg">
<path d="M36.369 72.9457C33.6291 72.9456 30.9629 72.0573 28.7689 70.4138C26.575 68.7702 24.9711 66.4596 24.1972 63.8273C22.8616 59.2851 26.2617 54.7303 30.9903 54.7303H41.7476C46.4763 54.7303 49.8764 59.2833 48.5408 63.8256C47.7672 66.4581 46.1635 68.7691 43.9694 70.413C41.7754 72.0569 39.1091 72.9454 36.369 72.9457Z" fill="#28407D"/>
<path d="M15.2695 64.181C14.9165 64.7932 14.74 65.0994 14.437 65.1548C14.1342 65.2102 13.8679 64.992 13.3353 64.5554C5.19519 57.8829 1.48702e-06 47.7415 0 36.385C-2.6312e-06 16.2901 16.2658 2.63513e-06 36.3307 0C56.3957 -2.63512e-06 72.6615 16.2901 72.6615 36.3849C72.6615 47.7415 67.4663 57.8829 59.3262 64.5554C58.7936 64.9919 58.5274 65.2102 58.2245 65.1548C57.9215 65.0994 57.745 64.7932 57.392 64.1809L51.5722 54.0858C51.3144 53.6385 51.1854 53.4148 51.2171 53.1878C51.2487 52.9608 51.4419 52.7732 51.8283 52.398C56.0033 48.3447 58.598 42.6682 58.598 36.3849C58.598 24.0687 48.6286 14.0845 36.3307 14.0845C24.0329 14.0845 14.0635 24.0687 14.0635 36.385C14.0635 42.6682 16.6582 48.3447 20.8332 52.398C21.2196 52.7732 21.4128 52.9608 21.4444 53.1878C21.476 53.4148 21.3472 53.6385 21.0893 54.0858L15.2695 64.181Z" fill="#01CA7C"/>
<path d="M44.6649 41.3922C44.6649 36.8084 40.9544 33.0924 36.3773 33.0924C31.8003 33.0924 28.0898 36.8084 28.0898 41.3922C28.0898 45.9762 31.8003 49.6922 36.3773 49.6922C40.9544 49.6922 44.6649 45.9762 44.6649 41.3922Z" fill="#28407D"/>
<path d="M119.755 62.305C115.392 62.305 111.453 61.3133 107.94 59.33C104.427 57.29 101.65 54.5417 99.61 51.085C97.57 47.5717 96.55 43.6617 96.55 39.355C96.55 34.9917 97.57 31.0817 99.61 27.625C101.65 24.1683 104.427 21.42 107.94 19.38C111.453 17.34 115.392 16.32 119.755 16.32C123.268 16.32 126.612 17 129.785 18.36C133.015 19.72 135.792 21.675 138.115 24.225L130.975 31.79C129.332 29.9767 127.603 28.645 125.79 27.795C124.033 26.8883 122.107 26.435 120.01 26.435C117.743 26.435 115.703 27.0017 113.89 28.135C112.133 29.2683 110.717 30.7983 109.64 32.725C108.62 34.6517 108.11 36.8617 108.11 39.355C108.11 41.735 108.62 43.9167 109.64 45.9C110.717 47.8267 112.19 49.3567 114.06 50.49C115.93 51.5667 117.998 52.105 120.265 52.105C122.248 52.105 124.09 51.7083 125.79 50.915C127.547 50.065 129.218 48.8183 130.805 47.175L137.775 54.485C135.508 56.9217 132.788 58.8483 129.615 60.265C126.442 61.625 123.155 62.305 119.755 62.305Z" fill="#28407D"/>
<path d="M158.194 62.22C155.021 62.22 152.216 61.6533 149.779 60.52C147.343 59.33 145.444 57.715 144.084 55.675C142.724 53.635 142.044 51.2833 142.044 48.62C142.044 44.37 143.631 41.0833 146.804 38.76C150.034 36.38 154.454 35.19 160.064 35.19C163.918 35.19 167.544 35.785 170.944 36.975V33.745C170.944 31.195 170.151 29.2683 168.564 27.965C166.978 26.6617 164.654 26.01 161.594 26.01C159.724 26.01 157.713 26.3217 155.559 26.945C153.406 27.5117 150.913 28.4183 148.079 29.665L143.829 21.08C147.343 19.4933 150.686 18.3033 153.859 17.51C157.089 16.7167 160.319 16.32 163.549 16.32C169.499 16.32 174.118 17.765 177.404 20.655C180.748 23.4883 182.419 27.5117 182.419 32.725V61.455H170.944V58.31C169.131 59.67 167.176 60.6617 165.079 61.285C162.983 61.9083 160.688 62.22 158.194 62.22ZM153.094 48.365C153.094 50.065 153.831 51.425 155.304 52.445C156.778 53.4083 158.733 53.89 161.169 53.89C163.096 53.89 164.881 53.6633 166.524 53.21C168.168 52.7 169.641 51.9633 170.944 51V44.54C169.528 43.9733 168.054 43.5483 166.524 43.265C164.994 42.9817 163.351 42.84 161.594 42.84C158.931 42.84 156.834 43.35 155.304 44.37C153.831 45.3333 153.094 46.665 153.094 48.365Z" fill="#28407D"/>
<path d="M191.488 61.455V17.17H203.133V22.1C204.549 20.1733 206.249 18.7 208.233 17.68C210.216 16.66 212.454 16.15 214.948 16.15C217.101 16.2067 218.716 16.5467 219.793 17.17V27.37C218.943 26.9733 218.008 26.69 216.988 26.52C215.968 26.2933 214.919 26.18 213.843 26.18C211.576 26.18 209.508 26.7467 207.638 27.88C205.768 29.0133 204.266 30.6283 203.133 32.725V61.455H191.488Z" fill="#28407D"/>
<path d="M245.182 62.05C240.988 62.05 237.192 61.03 233.792 58.99C230.392 56.95 227.672 54.23 225.632 50.83C223.648 47.3733 222.657 43.52 222.657 39.27C222.657 35.02 223.648 31.195 225.632 27.795C227.672 24.3383 230.42 21.6183 233.877 19.635C237.333 17.595 241.215 16.575 245.522 16.575C247.732 16.575 249.857 16.8867 251.897 17.51C253.937 18.0767 255.835 18.9267 257.592 20.06V1.955L269.237 0V61.455H257.762V57.8C254.135 60.6333 249.942 62.05 245.182 62.05ZM247.052 52.105C249.205 52.105 251.16 51.765 252.917 51.085C254.73 50.3483 256.288 49.2717 257.592 47.855V30.6C256.288 29.2967 254.73 28.2767 252.917 27.54C251.103 26.8033 249.148 26.435 247.052 26.435C244.615 26.435 242.405 27.0017 240.422 28.135C238.495 29.2117 236.965 30.7417 235.832 32.725C234.698 34.6517 234.132 36.8333 234.132 39.27C234.132 41.7067 234.698 43.8883 235.832 45.815C236.965 47.7417 238.495 49.2717 240.422 50.405C242.405 51.5383 244.615 52.105 247.052 52.105Z" fill="#28407D"/>
<path d="M278.575 61.455V17.17H290.22V22.1C291.637 20.1733 293.337 18.7 295.32 17.68C297.303 16.66 299.542 16.15 302.035 16.15C304.188 16.2067 305.803 16.5467 306.88 17.17V27.37C306.03 26.9733 305.095 26.69 304.075 26.52C303.055 26.2933 302.007 26.18 300.93 26.18C298.663 26.18 296.595 26.7467 294.725 27.88C292.855 29.0133 291.353 30.6283 290.22 32.725V61.455H278.575Z" fill="#01CA7C"/>
<path d="M333.459 62.305C329.039 62.305 325.016 61.285 321.389 59.245C317.819 57.205 314.986 54.4567 312.889 51C310.792 47.5433 309.744 43.6617 309.744 39.355C309.744 35.0483 310.736 31.1667 312.719 27.71C314.759 24.2533 317.507 21.505 320.964 19.465C324.421 17.425 328.274 16.405 332.524 16.405C336.774 16.405 340.542 17.4533 343.829 19.55C347.116 21.6467 349.694 24.48 351.564 28.05C353.491 31.62 354.454 35.6717 354.454 40.205V43.265H321.644C322.154 45.0217 322.976 46.6083 324.109 48.025C325.299 49.4417 326.744 50.5467 328.444 51.34C330.201 52.1333 332.071 52.53 334.054 52.53C336.037 52.53 337.851 52.2183 339.494 51.595C341.194 50.9717 342.639 50.0933 343.829 48.96L351.479 55.93C348.759 58.14 345.954 59.755 343.064 60.775C340.231 61.795 337.029 62.305 333.459 62.305ZM321.474 34.935H342.979C342.582 33.1783 341.846 31.6483 340.769 30.345C339.749 28.985 338.502 27.9367 337.029 27.2C335.612 26.4067 334.026 26.01 332.269 26.01C330.456 26.01 328.812 26.3783 327.339 27.115C325.866 27.8517 324.619 28.9 323.599 30.26C322.636 31.5633 321.927 33.1217 321.474 34.935Z" fill="#01CA7C"/>
<path d="M361.844 61.455V17.17H373.489V20.825C376.832 17.8217 380.969 16.32 385.899 16.32C389.355 16.32 392.387 17.085 394.994 18.615C397.657 20.0883 399.725 22.1567 401.199 24.82C402.672 27.4267 403.409 30.4867 403.409 34V61.455H391.764V35.7C391.764 32.81 390.942 30.5433 389.299 28.9C387.655 27.2 385.417 26.35 382.584 26.35C380.6 26.35 378.844 26.7467 377.314 27.54C375.784 28.2767 374.509 29.3533 373.489 30.77V61.455H361.844Z" fill="#01CA7C"/>
<path d="M432.969 62.05C428.776 62.05 424.979 61.03 421.579 58.99C418.179 56.95 415.459 54.23 413.419 50.83C411.436 47.3733 410.444 43.52 410.444 39.27C410.444 35.02 411.436 31.195 413.419 27.795C415.459 24.3383 418.208 21.6183 421.664 19.635C425.121 17.595 429.003 16.575 433.309 16.575C435.519 16.575 437.644 16.8867 439.684 17.51C441.724 18.0767 443.623 18.9267 445.379 20.06V1.955L457.024 0V61.455H445.549V57.8C441.923 60.6333 437.729 62.05 432.969 62.05ZM434.839 52.105C436.993 52.105 438.948 51.765 440.704 51.085C442.518 50.3483 444.076 49.2717 445.379 47.855V30.6C444.076 29.2967 442.518 28.2767 440.704 27.54C438.891 26.8033 436.936 26.435 434.839 26.435C432.403 26.435 430.193 27.0017 428.209 28.135C426.283 29.2117 424.753 30.7417 423.619 32.725C422.486 34.6517 421.919 36.8333 421.919 39.27C421.919 41.7067 422.486 43.8883 423.619 45.815C424.753 47.7417 426.283 49.2717 428.209 50.405C430.193 51.5383 432.403 52.105 434.839 52.105Z" fill="#01CA7C"/>
<path d="M488.037 62.305C483.617 62.305 479.594 61.285 475.967 59.245C472.397 57.205 469.564 54.4567 467.467 51C465.371 47.5433 464.322 43.6617 464.322 39.355C464.322 35.0483 465.314 31.1667 467.297 27.71C469.337 24.2533 472.086 21.505 475.542 19.465C478.999 17.425 482.852 16.405 487.102 16.405C491.352 16.405 495.121 17.4533 498.407 19.55C501.694 21.6467 504.272 24.48 506.142 28.05C508.069 31.62 509.032 35.6717 509.032 40.205V43.265H476.222C476.732 45.0217 477.554 46.6083 478.687 48.025C479.877 49.4417 481.322 50.5467 483.022 51.34C484.779 52.1333 486.649 52.53 488.632 52.53C490.616 52.53 492.429 52.2183 494.072 51.595C495.772 50.9717 497.217 50.0933 498.407 48.96L506.057 55.93C503.337 58.14 500.532 59.755 497.642 60.775C494.809 61.795 491.607 62.305 488.037 62.305ZM476.052 34.935H497.557C497.161 33.1783 496.424 31.6483 495.347 30.345C494.327 28.985 493.081 27.9367 491.607 27.2C490.191 26.4067 488.604 26.01 486.847 26.01C485.034 26.01 483.391 26.3783 481.917 27.115C480.444 27.8517 479.197 28.9 478.177 30.26C477.214 31.5633 476.506 33.1217 476.052 34.935Z" fill="#01CA7C"/>
<path d="M516.422 61.455V17.17H528.067V22.1C529.484 20.1733 531.184 18.7 533.167 17.68C535.15 16.66 537.389 16.15 539.882 16.15C542.035 16.2067 543.65 16.5467 544.727 17.17V27.37C543.877 26.9733 542.942 26.69 541.922 26.52C540.902 26.2933 539.854 26.18 538.777 26.18C536.51 26.18 534.442 26.7467 532.572 27.88C530.702 29.0133 529.2 30.6283 528.067 32.725V61.455H516.422Z" fill="#01CA7C"/>
</svg>
