<svg width="499" height="73" viewBox="0 0 499 73" fill="none" xmlns="http://www.w3.org/2000/svg">
<path d="M15.2695 64.181C14.9165 64.7932 14.74 65.0994 14.437 65.1548C14.1342 65.2102 13.8679 64.992 13.3353 64.5554C5.19519 57.8829 1.48702e-06 47.7415 0 36.385C-2.6312e-06 16.2901 16.2658 2.63513e-06 36.3307 0C56.3957 -2.63512e-06 72.6615 16.2901 72.6615 36.3849C72.6615 47.7415 67.4663 57.8829 59.3262 64.5554C58.7936 64.9919 58.5274 65.2102 58.2245 65.1548C57.9215 65.0994 57.745 64.7932 57.392 64.1809L51.5722 54.0858C51.3144 53.6385 51.1854 53.4148 51.2171 53.1878C51.2487 52.9608 51.4419 52.7732 51.8283 52.398C56.0033 48.3447 58.598 42.6682 58.598 36.3849C58.598 24.0687 48.6286 14.0845 36.3307 14.0845C24.0329 14.0845 14.0635 24.0687 14.0635 36.385C14.0635 42.6682 16.6582 48.3447 20.8332 52.398C21.2196 52.7732 21.4128 52.9608 21.4444 53.1878C21.476 53.4148 21.3472 53.6385 21.0893 54.0858L15.2695 64.181Z" fill="#01CA7C"/>
<path d="M36.369 72.9457C33.6291 72.9456 30.9629 72.0573 28.7689 70.4138C26.575 68.7702 24.9711 66.4596 24.1972 63.8273C22.8616 59.2851 26.2617 54.7303 30.9903 54.7303H41.7476C46.4763 54.7303 49.8764 59.2833 48.5408 63.8256C47.7672 66.4581 46.1635 68.7691 43.9694 70.413C41.7754 72.0569 39.1091 72.9454 36.369 72.9457Z" fill="#28407D"/>
<path d="M44.6649 41.3922C44.6649 36.8084 40.9544 33.0924 36.3773 33.0924C31.8003 33.0924 28.0898 36.8084 28.0898 41.3922C28.0898 45.9762 31.8003 49.6922 36.3773 49.6922C40.9544 49.6922 44.6649 45.9762 44.6649 41.3922Z" fill="#28407D"/>
<path d="M273.47 25.662C277.242 23.284 281.998 23.038 286.836 23.038V31.566C284.95 31.156 283.638 30.91 282.9 30.91C278.636 30.91 273.798 32.632 273.798 36.978C273.798 37.88 273.798 39.11 273.716 40.586V62.972H265.844V23.94H273.47V25.662Z" fill="#01CA7C"/>
<path d="M331.075 47.228H300.079C301.719 52.64 305.491 55.592 311.723 55.592C316.725 55.592 320.005 53.87 323.859 49.36L330.009 52.968C326.237 59.446 319.513 63.382 312.133 63.382C300.325 63.382 291.469 54.936 291.469 43.21C291.469 31.812 300.243 23.038 311.641 23.038C323.203 23.038 331.239 31.812 331.239 44.44L331.075 47.228ZM311.723 30.992C306.311 30.992 302.293 33.78 300.325 39.274H322.383C320.907 33.534 317.135 30.992 311.723 30.992Z" fill="#01CA7C"/>
<path d="M357.544 23.038C365.58 23.038 371.812 27.712 373.124 35.42C373.534 37.88 373.534 41.734 373.534 42.636V62.972H365.662V45.834C365.744 45.014 365.744 44.276 365.744 43.538C365.744 36.322 364.35 30.746 357.79 30.746C348.606 30.746 347.622 36.65 347.622 41.652C347.622 42.472 347.622 43.128 347.704 43.866V62.972H339.996L340.16 23.038H347.95L347.868 25.498C350.41 23.694 353.608 23.038 357.544 23.038Z" fill="#01CA7C"/>
<path d="M401.26 23.038C405.278 23.038 410.116 24.35 413.56 27.138V10H421.186V62.972H413.56V58.79C409.132 62.398 404.294 63.382 400.276 63.382C389.616 63.382 380.596 54.116 380.596 43.046C380.596 31.812 389.616 23.038 401.26 23.038ZM401.096 55.592C407.902 55.592 413.396 50.098 413.396 43.21C413.396 36.568 407.902 30.828 401.096 30.828C394.454 30.828 388.714 36.486 388.714 43.21C388.714 49.934 394.208 55.592 401.096 55.592Z" fill="#01CA7C"/>
<path d="M469.45 47.228H438.454C440.094 52.64 443.866 55.592 450.098 55.592C455.1 55.592 458.38 53.87 462.234 49.36L468.384 52.968C464.612 59.446 457.888 63.382 450.508 63.382C438.7 63.382 429.844 54.936 429.844 43.21C429.844 31.812 438.618 23.038 450.016 23.038C461.578 23.038 469.614 31.812 469.614 44.44L469.45 47.228ZM450.098 30.992C444.686 30.992 440.668 33.78 438.7 39.274H460.758C459.282 33.534 455.51 30.992 450.098 30.992Z" fill="#01CA7C"/>
<path d="M485.196 25.662C488.968 23.284 493.724 23.038 498.562 23.038V31.566C496.676 31.156 495.364 30.91 494.626 30.91C490.362 30.91 485.524 32.632 485.524 36.978C485.524 37.88 485.524 39.11 485.442 40.586V62.972H477.57V23.94H485.196V25.662Z" fill="#01CA7C"/>
<path d="M135.802 53.46C131.62 60.02 125.716 63.382 118.5 63.382C107.102 63.382 98 54.772 98 43.21C98 31.73 105.954 23.038 118.254 23.038C124.978 23.038 131.128 25.744 136.622 34.19L130.39 38.208C126.372 33.37 123.256 30.828 118.418 30.828C111.202 30.828 106.118 35.912 106.118 43.128C106.118 49.934 111.53 55.428 117.844 55.428C121.452 55.428 125.552 54.526 130.308 48.13L136.704 52.066L135.802 53.46Z" fill="#203468"/>
<path d="M175.886 23.94H183.758L183.922 62.972H175.886V59.282C170.72 63.3 165.636 63.382 161.782 63.382C151.86 63.382 143.004 53.706 143.004 43.128C143.004 32.386 151.778 23.038 162.028 23.038C166.21 23.038 170.556 23.366 175.886 27.466V23.94ZM163.504 55.592C170.474 55.592 175.886 50.016 175.886 43.21C175.886 36.24 170.31 30.746 163.504 30.746C156.616 30.746 151.122 36.322 151.122 43.538C151.122 50.262 156.534 55.592 163.504 55.592Z" fill="#203468"/>
<path d="M200.278 25.662C204.05 23.284 208.806 23.038 213.644 23.038V31.566C211.758 31.156 210.446 30.91 209.708 30.91C205.444 30.91 200.606 32.632 200.606 36.978C200.606 37.88 200.606 39.11 200.524 40.586V62.972H192.652V23.94H200.278V25.662Z" fill="#203468"/>
<path d="M237.26 23.038C241.278 23.038 246.116 24.35 249.56 27.138V10H257.186V62.972H249.56V58.79C245.132 62.398 240.294 63.382 236.276 63.382C225.616 63.382 216.596 54.116 216.596 43.046C216.596 31.812 225.616 23.038 237.26 23.038ZM237.096 55.592C243.902 55.592 249.396 50.098 249.396 43.21C249.396 36.568 243.902 30.828 237.096 30.828C230.454 30.828 224.714 36.486 224.714 43.21C224.714 49.934 230.208 55.592 237.096 55.592Z" fill="#203468"/>
</svg>
