<svg width="73" height="73" viewBox="0 0 73 73" fill="none" xmlns="http://www.w3.org/2000/svg">
<path d="M36.369 72.9457C33.6291 72.9456 30.9629 72.0573 28.7689 70.4138C26.575 68.7702 24.9711 66.4596 24.1972 63.8273C22.8616 59.2851 26.2617 54.7303 30.9903 54.7303H41.7476C46.4763 54.7303 49.8764 59.2833 48.5408 63.8256C47.7672 66.4581 46.1635 68.7691 43.9694 70.413C41.7754 72.0569 39.1091 72.9454 36.369 72.9457Z" fill="#28407D"/>
<path d="M15.2695 64.181C14.9165 64.7932 14.74 65.0994 14.437 65.1548C14.1342 65.2102 13.8679 64.992 13.3353 64.5554C5.19519 57.8829 1.48702e-06 47.7415 0 36.385C-2.6312e-06 16.2901 16.2658 2.63513e-06 36.3307 0C56.3957 -2.63512e-06 72.6615 16.2901 72.6615 36.3849C72.6615 47.7415 67.4663 57.8829 59.3262 64.5554C58.7936 64.9919 58.5274 65.2102 58.2245 65.1548C57.9215 65.0994 57.745 64.7932 57.392 64.1809L51.5722 54.0858C51.3144 53.6385 51.1854 53.4148 51.2171 53.1878C51.2487 52.9608 51.4419 52.7732 51.8283 52.398C56.0033 48.3447 58.598 42.6682 58.598 36.3849C58.598 24.0687 48.6286 14.0845 36.3307 14.0845C24.0329 14.0845 14.0635 24.0687 14.0635 36.385C14.0635 42.6682 16.6582 48.3447 20.8332 52.398C21.2196 52.7732 21.4128 52.9608 21.4444 53.1878C21.476 53.4148 21.3472 53.6385 21.0893 54.0858L15.2695 64.181Z" fill="#01CA7C"/>
<path d="M44.6649 41.3922C44.6649 36.8084 40.9544 33.0924 36.3773 33.0924C31.8003 33.0924 28.0898 36.8084 28.0898 41.3922C28.0898 45.9762 31.8003 49.6922 36.3773 49.6922C40.9544 49.6922 44.6649 45.9762 44.6649 41.3922Z" fill="#28407D"/>
</svg>
